<?xml version="1.0" encoding="utf-8"?>
<!-- Generator: Adobe Illustrator 19.0.0, SVG Export Plug-In . SVG Version: 6.00 Build 0)  -->
<svg version="1.1" id="Capa_1" xmlns="http://www.w3.org/2000/svg" xmlns:xlink="http://www.w3.org/1999/xlink" x="0px" y="0px"
	 viewBox="0 91 612 612" style="enable-background:new 0 91 612 612;" xml:space="preserve">
<style type="text/css">
	.st0{fill:#FFFFFF;}
</style>
<g>
	<g id="_x31_0_41_">
		<g>
			<path class="st0" d="M415.3,287.7c-7.5-7.5-19.7-7.5-27.3,0l-82.2,82.2l-81-81c-7.5-7.5-19.6-7.5-27,0c-7.5,7.5-7.5,19.6,0,27
				l81,81l-81.6,81.6c-7.5,7.5-7.5,19.7,0,27.3s19.7,7.5,27.3,0l81.6-81.6l81,81c7.5,7.5,19.6,7.5,27,0c7.5-7.5,7.5-19.6,0-27
				l-81-81l82.2-82.2C422.9,307.4,422.9,295.2,415.3,287.7z M306,91C137,91,0,228,0,397s137,306,306,306c169,0,306-137,306-306
				S475,91,306,91z M306,664.8C158.1,664.8,38.2,544.9,38.2,397S158.1,129.2,306,129.2S573.8,249.1,573.8,397S453.9,664.8,306,664.8
				z"/>
		</g>
	</g>
</g>
</svg>
