<?xml version="1.0" encoding="utf-8"?>
<!-- Generator: Adobe Illustrator 19.0.0, SVG Export Plug-In . SVG Version: 6.00 Build 0)  -->
<svg version="1.1" id="Capa_1" xmlns="http://www.w3.org/2000/svg" xmlns:xlink="http://www.w3.org/1999/xlink" x="0px" y="0px"
	 viewBox="0 131.8 612 530.5" style="enable-background:new 0 131.8 612 530.5;" xml:space="preserve">
<style type="text/css">
	.st0{fill:#FFFFFF;}
</style>
<g>
	<g id="_x31__36_">
		<g>
			<path class="st0" d="M393,505.1l-66.6,80.8V295c0-11.3-9.1-20.4-20.4-20.4s-20.4,9.2-20.4,20.4v291.6l-67.3-81.6c-8-8-21-8-29,0
				c-8,8-8,21.1,0,29.1l100.8,122.2c4.3,4.3,9.9,6.1,15.5,5.8c5.6,0.3,11.2-1.5,15.5-5.8L422,534.2c8-8,8-21.1,0-29.1
				C414,497,401,497,393,505.1z M591.6,131.8H20.4C9.1,131.8,0,140.9,0,152.2v163.2c0,11.3,9.1,20.4,20.4,20.4s20.4-9.1,20.4-20.4
				V172.6h530.4v142.8c0,11.3,9.1,20.4,20.4,20.4s20.4-9.1,20.4-20.4V152.2C612,140.9,602.9,131.8,591.6,131.8z"/>
		</g>
	</g>
</g>
</svg>
