<?xml version="1.0" encoding="utf-8"?>
<!-- Generator: Adobe Illustrator 16.0.0, SVG Export Plug-In . SVG Version: 6.00 Build 0)  -->
<!DOCTYPE svg PUBLIC "-//W3C//DTD SVG 1.1 Tiny//EN" "http://www.w3.org/Graphics/SVG/1.1/DTD/svg11-tiny.dtd">
<svg version="1.1" baseProfile="tiny" id="Layer_1" xmlns="http://www.w3.org/2000/svg" xmlns:xlink="http://www.w3.org/1999/xlink"
	 x="0px" y="0px" width="24px" height="24px" viewBox="0 0 24 24" xml:space="preserve">
<g>
	<path d="M20.275,8.315c0-0.063-0.015-0.121-0.04-0.173c-0.023-0.322-0.054-0.373-0.08-0.418c-0.059-0.096-0.575-0.632-1.536-1.594
		l-3.902-3.9c-0.962-0.961-1.498-1.478-1.59-1.533c-0.094-0.058-0.199-0.124-2.412-0.124H6.84c-0.612,0-2.051,0.002-2.177,0.021
		c-0.192,0.024-0.482,0.204-0.6,0.32C3.961,1.018,3.824,1.196,3.779,1.352C3.743,1.47,3.725,2.256,3.725,3.688v16.624
		c0,0.082,0.001,2.022,0.021,2.177c0.024,0.192,0.205,0.481,0.319,0.598c0.082,0.081,0.266,0.233,0.443,0.288
		c0.148,0.043,1.35,0.053,2.332,0.053h10.32c0.082,0,2.021-0.001,2.178-0.021c0.193-0.024,0.482-0.206,0.598-0.32
		c0.103-0.104,0.239-0.28,0.287-0.441c0.035-0.118,0.053-0.903,0.053-2.333V10.133c0-0.809-0.01-1.336-0.023-1.684
		C20.267,8.407,20.275,8.362,20.275,8.315z M12.93,1.594c0.253,0.243,0.678,0.659,1.221,1.203l3.902,3.9
		c0.542,0.541,0.957,0.965,1.2,1.218h-4.724c-0.882,0-1.6-0.718-1.6-1.6V1.594z M19.475,20.312c0,1.169-0.018,2.043-0.012,2.085
		c-0.01,0.021-0.05,0.08-0.092,0.122c-0.03,0.027-0.135,0.089-0.121,0.093c-0.088,0.006-0.883,0.015-2.09,0.015H6.84
		c-0.99,0-1.77-0.013-2.009-0.013c-0.043,0-0.069,0.001-0.075,0.002c-0.021-0.01-0.081-0.051-0.122-0.092
		c-0.026-0.029-0.082-0.124-0.093-0.124c0,0-0.001,0-0.001,0.001c-0.006-0.088-0.015-0.882-0.015-2.089V3.688
		c0-1.215,0.018-2.045,0.014-2.087c0.009-0.02,0.049-0.08,0.088-0.119c0.03-0.027,0.136-0.088,0.127-0.094
		C4.85,1.381,5.675,1.374,6.84,1.374h3.875c0.566,0,1.052,0.007,1.414,0.017v4.925c0,1.323,1.077,2.4,2.4,2.4h4.93
		c0.009,0.363,0.016,0.85,0.016,1.417V20.312z"/>
	<path d="M11.634,20.203c0.01,0.017,0.021,0.033,0.032,0.048c0.009,0.012,0.013,0.024,0.023,0.035s0.023,0.015,0.035,0.023
		c0.029,0.023,0.059,0.048,0.095,0.063c0.054,0.022,0.11,0.03,0.167,0.028c0.107,0.004,0.215-0.032,0.297-0.114
		c0.024-0.024,0.037-0.054,0.054-0.081l2.974-2.974c0.156-0.156,0.156-0.41,0-0.566c-0.078-0.078-0.181-0.117-0.283-0.117
		s-0.205,0.039-0.283,0.117l-2.371,2.371v-6.064c0-0.221-0.18-0.4-0.4-0.4s-0.4,0.18-0.4,0.4v6.037l-2.344-2.344
		c-0.078-0.078-0.181-0.117-0.283-0.117s-0.205,0.039-0.283,0.117c-0.156,0.156-0.156,0.41,0,0.566L11.634,20.203z"/>
</g>
</svg>
