<?xml version="1.0" encoding="utf-8"?>
<!-- Generator: Adobe Illustrator 19.0.0, SVG Export Plug-In . SVG Version: 6.00 Build 0)  -->
<svg version="1.1" id="Capa_1" xmlns="http://www.w3.org/2000/svg" xmlns:xlink="http://www.w3.org/1999/xlink" x="0px" y="0px"
	 viewBox="-105 197.6 399.4 399.4" style="enable-background:new -105 197.6 399.4 399.4;" xml:space="preserve">
<g>
	<path d="M235.9,256.1c-37.7-37.7-87.9-58.5-141.2-58.5c-53.3,0-103.5,20.8-141.2,58.5C-84.2,293.8-105,344-105,397.3
		c0,53.3,20.8,103.5,58.5,141.2C-8.8,576.2,41.4,597,94.7,597c53.3,0,103.5-20.8,141.2-58.5c37.7-37.7,58.5-87.9,58.5-141.2
		C294.4,344,273.6,293.8,235.9,256.1z M94.7,275.1c67.4,0,122.2,54.8,122.2,122.2S162.1,519.5,94.7,519.5S-27.5,464.7-27.5,397.3
		S27.3,275.1,94.7,275.1z M223.1,525.7c-34.3,34.3-79.9,53.2-128.4,53.2c-48.5,0-94.1-18.9-128.4-53.2
		c-34.3-34.3-53.2-79.9-53.2-128.4h41.1c0,77.4,63,140.4,140.4,140.4c77.4,0,140.4-63,140.4-140.4s-63-140.4-140.4-140.4
		c-4.6,0-9.1,0.2-13.6,0.7v-41.3c4.5-0.3,9-0.5,13.6-0.5c48.5,0,94.1,18.9,128.4,53.2c34.3,34.3,53.2,79.9,53.2,128.4
		C276.2,445.8,257.4,491.4,223.1,525.7z"/>
</g>
</svg>
