<?xml version="1.0" encoding="utf-8"?>
<!-- Generator: Adobe Illustrator 19.0.0, SVG Export Plug-In . SVG Version: 6.00 Build 0)  -->
<svg version="1.1" id="Layer_1" xmlns="http://www.w3.org/2000/svg" xmlns:xlink="http://www.w3.org/1999/xlink" x="0px" y="0px"
	 viewBox="0 0 535.3 98.4" style="enable-background:new 0 0 535.3 98.4;" xml:space="preserve">
<style type="text/css">
	.st0{fill:#FFFFFF;}
	.st1{fill:#F7941E;}
</style>
<path class="st0" d="M85.8,63.2c0,4.9-2.5,7.4-7.3,7.4h-1.3c-4.8,0-7.2-2.5-7.2-7.3v-7.5h3.5v7.6c0,2.6,1.3,3.8,3.8,3.8h1
	c2.5,0,3.8-1.3,3.8-3.8v-12c0-2.6-1.2-4-3.5-4c-2,0-3.5,0.8-5.4,2.7h-3V28.2h15v3.4H73.7l-0.1,14.8c1.6-1.3,3.2-2.2,5.9-2.2
	c3.8,0,6.4,2.5,6.4,6.7V63.2z"/>
<polygon class="st0" points="231.7,28.2 231.7,31.5 222.6,31.5 222.6,47.1 231.4,47.1 231.4,50.5 222.6,50.5 222.6,66.9 231.8,66.9 
	231.8,70.2 219,70.2 219,28.2 "/>
<path class="st0" d="M382.5,63.2c0,4.9-2.5,7.4-7.3,7.4h-1.3c-4.8,0-7.2-2.5-7.2-7.3v-7.5h3.5v7.6c0,2.6,1.3,3.8,3.8,3.8h1
	c2.5,0,3.8-1.3,3.8-3.8v-12c0-2.6-1.2-4-3.5-4c-2,0-3.5,0.8-5.4,2.7h-3V28.2h15v3.4h-11.7l-0.1,14.8c1.6-1.3,3.2-2.2,5.9-2.2
	c3.8,0,6.4,2.5,6.4,6.7V63.2z"/>
<path class="st0" d="M459.8,35c0-2.6-1.3-3.8-3.8-3.8h-1.3c-2.6,0-3.8,1.3-3.8,3.8v11.1c0,2.4,1.1,3.9,4,3.9c1.9,0,3.8-0.6,5-1.3V35
	z M459.8,63.4V51.8c-1.6,0.9-3.4,1.6-5.6,1.6h-0.3c-4.4,0-6.7-2.8-6.7-6.6V35.1c0-4.8,2.5-7.3,7.4-7.3h1.3c4.9,0,7.4,2.5,7.4,7.3
	v28.1c0,4.9-2.5,7.4-7.4,7.4h-1.3c-5,0-7.3-2.3-7.3-7.2v-5.5h3.5v5.5c0,2.6,1.3,3.8,3.8,3.8h1.3C458.4,67.2,459.8,66,459.8,63.4"/>
<polygon class="st1" points="19.9,98.4 0,98.4 0,0 19.9,0 19.9,3.4 3.9,3.4 3.9,95 19.9,95 "/>
<polygon class="st1" points="515.4,0 535.3,0 535.3,98.4 515.4,98.4 515.4,95 531.5,95 531.5,3.4 515.4,3.4 "/>
</svg>
